<?xml version="1.0" standalone="no"?><!DOCTYPE svg PUBLIC "-//W3C//DTD SVG 1.1//EN" "http://www.w3.org/Graphics/SVG/1.1/DTD/svg11.dtd"><svg t="1496490750480" class="icon" style="" viewBox="0 0 1024 1024" version="1.1" xmlns="http://www.w3.org/2000/svg" p-id="1611" xmlns:xlink="http://www.w3.org/1999/xlink" width="200" height="200"><defs><style type="text/css"></style></defs><path d="M515.518 13.597c-273.845 0-496.611 222.766-496.611 496.603 0 273.845 222.767 496.611 496.611 496.611 273.837 0 496.603-222.767 496.603-496.611-0.001-273.837-222.766-496.603-496.603-496.603zM515.518 956.622c-246.125 0-446.423-200.298-446.423-446.423 0-246.159 200.298-446.416 446.423-446.416 246.158 0 446.416 200.259 446.416 446.416 0 246.125-200.259 446.423-446.416 446.423z" fill="#40db1f" p-id="1612"></path><path d="M479.815 573.276c-15.229 0-27.612-12.384-27.612-27.598v-283.715c0-15.296 12.384-27.732 27.612-27.732 15.216 0 27.598 12.438 27.598 27.732v256.102h185.191c15.309 0 27.747 12.384 27.747 27.612 0 15.216-12.438 27.598-27.747 27.598h-212.789z" fill="#40db1f" p-id="1613"></path></svg>