<?xml version="1.0" standalone="no"?><!DOCTYPE svg PUBLIC "-//W3C//DTD SVG 1.1//EN" "http://www.w3.org/Graphics/SVG/1.1/DTD/svg11.dtd"><svg t="1495720424790" class="icon" style="" viewBox="0 0 1260 1024" version="1.1" xmlns="http://www.w3.org/2000/svg" p-id="1572" xmlns:xlink="http://www.w3.org/1999/xlink" width="246.09375" height="200"><defs><style type="text/css"></style></defs><path d="M572.164 500.302h165.451v16.713h-165.451z" fill="#515151" p-id="1573"></path><path d="M715.272 411.225l13.604 9.694-66.883 93.922-13.62-9.694zM572.164 555.451h165.451v16.713h-165.451z" fill="#515151" p-id="1574"></path><path d="M594.926 410.308l66.899 93.922-13.62 9.694-66.899-93.922z" fill="#515151" p-id="1575"></path><path d="M872.983 750.985h-564.873c-25.068 0-45.122-20.055-45.122-45.122v-103.616l6.686-1.672c41.781-8.356 73.534-43.451 73.534-86.903s-30.082-80.219-73.534-86.903l-6.686-1.672v-103.616c0-25.069 20.055-45.122 45.122-45.122h564.873c25.068 0 45.122 20.055 45.122 45.122v105.287h-8.357c-45.122 3.342-80.219 41.781-80.219 88.575s35.095 83.561 80.219 88.575h8.357v100.272c0 26.74-20.055 46.794-45.122 46.794zM279.7 615.616v90.247c0 15.040 13.369 28.411 28.411 28.411h564.873c15.040 0 28.411-13.369 28.411-28.411v-85.233c-50.137-8.357-88.575-51.808-88.575-103.616s36.767-95.26 88.575-103.616v-91.916c0-15.040-13.369-28.411-28.411-28.411h-564.873c-15.040 0-28.411 13.369-28.411 28.411v90.247c46.794 11.698 80.219 53.48 80.219 101.945-1.672 48.466-33.425 90.247-80.219 101.945z" fill="#515151" p-id="1576"></path><path d="M443.48 284.713h16.713v33.425h-16.713zM460.192 659.068h-16.713v-56.822h16.713v56.821zM460.192 545.425h-16.713v-56.821h16.713v56.821zM460.192 431.781h-16.713v-56.821h16.713v56.822zM443.48 715.89h16.713v33.425h-16.713zM647.369 500.302h16.713v128.683h-16.713z" fill="#515151" p-id="1577"></path></svg>