<?xml version="1.0" standalone="no"?><!DOCTYPE svg PUBLIC "-//W3C//DTD SVG 1.1//EN" "http://www.w3.org/Graphics/SVG/1.1/DTD/svg11.dtd"><svg t="1497235564782" class="icon" style="" viewBox="0 0 1024 1024" version="1.1" xmlns="http://www.w3.org/2000/svg" p-id="1703" xmlns:xlink="http://www.w3.org/1999/xlink" width="200" height="200"><defs><style type="text/css"></style></defs><path d="M697.974645 377.313461 489.646899 607.641267c-14.132882 14.09502-38.273698 14.107299-53.244668-0.86674l-97.009428-118.811989c-8.368598-10.233062-23.444968-11.742439-33.673937-3.372817-10.229992 8.371668-11.738345 23.451108-3.371794 33.682124l98.609879 120.583333c35.270295 35.449373 89.714278 35.419697 123.354446 1.77032l209.154577-231.194546c8.866948-9.803273 8.108678-24.940019-1.690502-33.809013C721.975269 366.752942 706.842617 367.510188 697.974645 377.313461zM561.086975 892.952338c45.119617-5.736655 87.788415-19.329231 126.592186-39.362496 51.132564-26.282596 94.63945-63.291488 128.413672-107.383706 33.838689-44.043099 58.31822-95.655594 70.463842-151.860686 9.218966-42.294268 11.346419-86.617753 5.41022-131.286092-5.823636-44.682665-19.348674-86.946234-39.196721-125.412314-26.276457-51.145867-63.276139-94.662986-107.358123-128.445394-44.032866-33.846876-95.633081-58.332547-151.823847-70.481238-42.285059-9.221012-86.59831-11.350512-131.255393-5.411243-44.672432 5.825682-86.925768 19.35379-125.382639 39.20593-51.132564 26.282596-94.63945 63.291488-128.413672 107.383706-33.838689 44.043099-58.31822 95.655594-70.462818 151.860686-9.29162 42.626843-11.380188 87.314625-5.270027 132.340097 4.687766 35.183314 14.210653 69.322855 28.275997 101.649098 0.192382 0.445138 0.399089 0.88209 0.617054 1.309832 13.273305 30.329772 30.358425 58.649771 50.863435 84.416622 8.230452 10.342556 23.285333 12.054547 33.626865 3.822049 10.340509-8.232498 12.051477-23.291472 3.818979-33.635051-28.360931-35.640732-49.240471-76.863598-61.299111-121.876792-3.927449-14.660908-6.819313-29.354562-8.720615-44.00626-1.788739-14.069437-2.695389-28.332279-2.695389-42.726104 0-24.407899 2.608407-48.206932 7.563256-71.13206 10.558473-48.437176 31.746028-93.832062 61.655222-132.878356 29.965475-39.004339 68.320015-71.222111 112.361067-93.960998 20.856004-10.719132 43.163055-19.399839 66.732867-25.717731 14.3181-3.836375 28.6669-6.685259 42.976814-8.588609 14.314007-1.866511 28.912493-2.829442 43.73406-2.829442 24.40176 0 48.194652 2.608407 71.113641 7.565303 48.424896 10.56052 93.809549 31.753191 132.846634 61.669548 38.993083 29.973662 71.205739 68.336388 93.937462 112.388696 10.717086 20.862143 19.394722 43.173289 25.710568 66.74924 3.836375 14.322194 6.684236 28.674063 8.586562 42.987047 1.866511 14.317077 2.829442 28.918633 2.829442 43.744293 0 24.407899-2.608407 48.206932-7.562233 71.131037-10.558473 48.437176-31.746028 93.832062-61.655222 132.87938-29.966499 39.003316-68.320015 71.223135-112.361067 93.959975-20.857027 10.720156-43.163055 19.400862-66.732867 25.717731-13.959943 3.741207-28.02324 6.564509-42.126446 8.476045-14.585183 1.940189-29.469172 2.942005-44.584428 2.942005-24.066115 0-47.756677-2.535753-70.780043-7.487531-0.763386-0.164752-1.526773-0.333598-2.289136-0.505513-0.163729-0.037862-0.329505-0.072655-0.49528-0.106424-28.445866-6.371104-55.851029-16.435321-81.656765-29.957289-11.707646-6.132674-26.171056-1.613754-32.302707 10.096962-6.132674 11.709693-1.611707 26.175149 10.094916 32.308847 30.485315 15.972786 62.930261 27.728528 96.608292 34.968419C473.968825 896.686383 517.689582 898.579499 561.086975 892.952338z" fill="#ffffff" p-id="1704"></path></svg>