<?xml version="1.0" standalone="no"?><!DOCTYPE svg PUBLIC "-//W3C//DTD SVG 1.1//EN" "http://www.w3.org/Graphics/SVG/1.1/DTD/svg11.dtd"><svg t="1494288883354" class="icon" style="" viewBox="0 0 1024 1024" version="1.1" xmlns="http://www.w3.org/2000/svg" p-id="1639" xmlns:xlink="http://www.w3.org/1999/xlink" width="200" height="200"><defs><style type="text/css"></style></defs><path d="M737.038848 377.675712c0-120.961956-98.019431-218.981387-218.935338-218.981387-120.92 0-218.983433 98.066503-218.983433 218.981387 0 81.456197 44.985564 151.672398 110.964254 189.423187-125.912711 40.652885-205.505467 157.285233-209.979362 295.723212l33.128515-0.475837c5.473665-145.81704 121.518634-267.506567 247.423159-267.506567l28.958542 1.651616c3.000334 0.098237 5.536087 0.260943 8.583492 0.260943C639.066489 596.661192 737.038848 498.593665 737.038848 377.675712L737.038848 377.675712zM518.10351 561.643654c-101.632725 0-184.02013-82.335217-184.02013-183.964872 0-101.627608 82.386382-184.013991 184.02013-184.013991 101.627608 0 184.015014 82.387405 184.015014 184.013991C702.118524 479.308437 619.67893 561.643654 518.10351 561.643654L518.10351 561.643654zM700.970374 630.699426c-5.324262-4.412496-10.101055-7.339152-16.85283-7.66354-9.968026-0.479931-18.519796 6.658653-17.712407 18.914792 0.419556 6.372128 4.037966 12.548804 15.219633 22.688745l0.094144-0.093121-0.094144 0.093121c59.982116 46.700625 99.875708 117.726262 105.588827 198.183711l34.718733 0C816.172139 768.799714 770.282996 685.73181 700.970374 630.699426L700.970374 630.699426z" p-id="1640"></path></svg>