<?xml version="1.0" standalone="no"?><!DOCTYPE svg PUBLIC "-//W3C//DTD SVG 1.1//EN" "http://www.w3.org/Graphics/SVG/1.1/DTD/svg11.dtd"><svg t="1496217929206" class="icon" style="" viewBox="0 0 1024 1024" version="1.1" xmlns="http://www.w3.org/2000/svg" p-id="3718" xmlns:xlink="http://www.w3.org/1999/xlink" width="200" height="200"><defs><style type="text/css"></style></defs><path d="M512 0C230.4 0 0 230.4 0 512s230.4 512 512 512 512-230.4 512-512-230.4-512-512-512z m224 736c-6.4 6.4-12.8 6.4-19.2 6.4s-12.8 0-19.2-6.4L512 550.4l-185.6 185.6c-6.4 6.4-12.8 6.4-19.2 6.4-6.4 0-12.8 0-19.2-6.4-12.8-12.8-12.8-32 0-44.8L473.6 512 288 326.4c-12.8-6.4-12.8-25.6 0-38.4 12.8-12.8 32-12.8 44.8 0L512 467.2l179.2-179.2c12.8-12.8 32-12.8 44.8 0 12.8 12.8 12.8 32 0 44.8L556.8 512l179.2 179.2c12.8 12.8 12.8 32 0 44.8z" fill="#CC3737" p-id="3719"></path></svg>