<?xml version="1.0" encoding="utf-8"?>
<!-- Generator: Adobe Illustrator 15.0.2, SVG Export Plug-In . SVG Version: 6.00 Build 0)  -->
<!DOCTYPE svg PUBLIC "-//W3C//DTD SVG 1.1//EN" "http://www.w3.org/Graphics/SVG/1.1/DTD/svg11.dtd">
<svg version="1.1" id="Capa_1" xmlns="http://www.w3.org/2000/svg" xmlns:xlink="http://www.w3.org/1999/xlink" x="0px" y="0px"
	 width="20px" height="17px" viewBox="0 0 20 17" enable-background="new 0 0 20 17" xml:space="preserve">
<path fill="#7A7A7A" d="M6.178,3.49C6.161,3.441,5.741,2.275,6.439,1.273C7.028,0.428,8.188,0,9.891,0
	c1.689,0,2.876,0.371,3.526,1.103c0.69,0.776,0.583,1.708,0.535,2.106l-0.011,0.108l-1.02-0.003c0-0.052,0.008-0.128,0.02-0.223
	c0.039-0.328,0.102-0.876-0.284-1.311c-0.444-0.498-1.4-0.761-2.767-0.761c-1.331,0-2.234,0.29-2.616,0.837
	C6.885,2.417,7.131,3.13,7.133,3.137L6.178,3.49z"/>
<path fill="#7A7A7A" d="M20,17H0V3h20V17z M1,16h18V4H1V16z"/>
</svg>
