<?xml version="1.0" standalone="no"?><!DOCTYPE svg PUBLIC "-//W3C//DTD SVG 1.1//EN" "http://www.w3.org/Graphics/SVG/1.1/DTD/svg11.dtd"><svg t="1495720409732" class="icon" style="" viewBox="0 0 1024 1024" version="1.1" xmlns="http://www.w3.org/2000/svg" p-id="1461" xmlns:xlink="http://www.w3.org/1999/xlink" width="200" height="200"><defs><style type="text/css"></style></defs><path d="M428.938 252.769h165.278v-17h-165.278v17zM443.37 290.722h136.416v-17.001h-136.416v17.001zM501.102 252.769v20.954h20.954v-20.954h-20.954zM655.903 288.154h28.864c32.439 0 57.731 25.292 57.731 57.729v360.808c0 39.655-32.51 72.161-72.161 72.161h-317.513c-39.657 0-72.162-32.506-72.162-72.161v-360.808c0-32.437 25.291-57.729 57.731-57.729h28.864v-20.954h-28.864c-48.382 0-78.685 30.303-78.685 78.683v360.808c0 55.599 37.519 93.118 93.116 93.118h317.513c55.596 0 93.114-37.519 93.114-93.118v-360.808c0-48.381-30.304-78.683-78.685-78.683h-28.864v20.954zM363.198 418.079h296.206v20.747h-296.206v-20.747zM362.916 517.192h296.203v20.749h-296.203v-20.749zM363.477 616.062h296.203v20.745h-296.203v-20.745z" fill="#515151" p-id="1462"></path></svg>