<?xml version="1.0" standalone="no"?><!DOCTYPE svg PUBLIC "-//W3C//DTD SVG 1.1//EN" "http://www.w3.org/Graphics/SVG/1.1/DTD/svg11.dtd"><svg t="1494288868504" class="icon" style="" viewBox="0 0 1024 1024" version="1.1" xmlns="http://www.w3.org/2000/svg" p-id="1419" xmlns:xlink="http://www.w3.org/1999/xlink" width="200" height="200"><defs><style type="text/css"></style></defs><path d="" p-id="1420"></path><path d="M665.394 363.5h-305.179c-24.266 0-24.266 37.595 0 37.595h305.179c24.262 0.001 24.262-37.595 0-37.595v0zM665.394 363.5z" p-id="1421"></path><path d="M665.394 497.153h-305.179c-24.266 0-24.266 37.595 0 37.595h305.179c24.262 0.001 24.262-37.595 0-37.595v0zM665.394 497.153z" p-id="1422"></path><path d="M665.394 630.814h-305.179c-24.266 0-24.266 37.595 0 37.595h305.179c24.262 0.001 24.262-37.595 0-37.595v0zM665.394 630.814z" p-id="1423"></path><path d="M841.308 361.282c-29.275-120.46-142.518-187.835-260.489-187.835-92.489 0-194.25-13.159-278.719 31.723-57.936 30.785-99.394 86.425-119.195 148.048-13.283 41.346-10.564 85.573-10.564 128.369 0 81.719-8.044 164.113 31.75 238.877 47.007 88.311 140.73 129.638 237.041 129.638 71.611 0 150.282 8.747 220.468-8.282 110.784-26.874 185.39-131.51 187.966-242.663 0.021-0.4 0.034-0.805 0.034-1.22 0.003-76.733 9.981-161.492-8.294-236.656v0zM707.961 781.829c-44.773 27.987-94.062 30.687-144.944 30.687h-131.525c-63.402 0-120.095-23.008-164.281-68.708-74.987-77.558-57.239-195.051-57.239-293.538 0-54.293 8.459-102.894 39.635-149.009 38.724-57.274 108.019-90.224 176.269-90.224 113.334 0 242.269-20.861 328.862 68.711 79.11 81.829 57.243 214.203 57.243 318.188-1.404 76.065-39.446 143.518-104.019 183.892v0zM707.961 781.829z" p-id="1424"></path></svg>