<?xml version="1.0" standalone="no"?><!DOCTYPE svg PUBLIC "-//W3C//DTD SVG 1.1//EN" "http://www.w3.org/Graphics/SVG/1.1/DTD/svg11.dtd"><svg t="1496203728604" class="icon" style="" viewBox="0 0 1220 1024" version="1.1" xmlns="http://www.w3.org/2000/svg" p-id="4627" xmlns:xlink="http://www.w3.org/1999/xlink" width="238.28125" height="200"><defs><style type="text/css"></style></defs><path d="M607.943 0c-282.774 0-512 229.226-512 512s229.226 512 512 512c282.774 0 512-229.226 512-512 0-282.774-229.226-512-512-512zM607.943 980.761c-258.864 0-468.761-209.897-468.761-468.761s209.897-468.761 468.761-468.761c258.864 0 468.761 209.897 468.761 468.761 0 258.864-209.897 468.761-468.761 468.761zM537.071 638.568l-135.159-136.018-45.101 45.387 180.26 181.405 382.998-385.432-45.101-45.387-337.897 340.045z" fill="#40db1f" p-id="4628"></path></svg>