<?xml version="1.0" standalone="no"?><!DOCTYPE svg PUBLIC "-//W3C//DTD SVG 1.1//EN" "http://www.w3.org/Graphics/SVG/1.1/DTD/svg11.dtd"><svg t="1494288849945" class="icon" style="" viewBox="0 0 1024 1024" version="1.1" xmlns="http://www.w3.org/2000/svg" p-id="1310" xmlns:xlink="http://www.w3.org/1999/xlink" width="200" height="200"><defs><style type="text/css"></style></defs><path d="M512.696097 388.287652c-68.213651 0-123.703512 55.489861-123.703512 123.703512a17.67193 17.67193 0 0 0 35.343861 0c0-48.721512 39.63814-88.359651 88.359651-88.359651a17.67193 17.67193 0 0 0 0-35.343861z" fill="" p-id="1311"></path><path d="M1019.085259 492.569713c-134.536405-135.614393-313.818138-210.29597-504.851704-210.295971l-1.042644 0.017672-0.494814-0.017672c-0.477142 0-0.954284 0.070688-1.431426 0.070688C321.362108 283.104323 143.229051 357.662197 9.399523 492.569713l-4.064544 4.099887a17.67193 17.67193 0 1 0 25.094141 24.882078l4.064544-4.099888c92.848322-93.608215 208.210683-156.484943 333.911123-183.982466C316.360952 375.616878 282.961004 439.960376 282.961004 511.991164c0 126.672396 103.062697 229.735094 229.735093 229.735094s229.735094-103.062697 229.735094-229.735094c0-72.631633-33.983122-137.381586-86.769178-179.511468 127.432289 26.985038 244.385124 90.26822 338.329105 184.972094a17.654258 17.654258 0 1 0 25.094141-24.882077zM707.08733 511.991164c0 107.180257-87.210976 194.391233-194.391233 194.391233s-194.391233-87.210976-194.391233-194.391233c0-106.703115 86.433411-193.54298 192.959807-194.320545 0.653861 0 1.290051-0.053016 1.92624-0.053016C620.159105 317.900354 707.08733 404.987626 707.08733 511.991164z" fill="" p-id="1312"></path></svg>